# xmcd CD database file
#
# Track frame offsets:
#	150
#	15853
#	28322
#	40978
#	52564
#	69431
#	78587
#	91463
#	106431
#	118007
#	132875
#
# Disc length: 2027 seconds
#
# Revision: 0
# Processed by: cddbd v1.5.2PL0 Copyright (c) Steve Scherf et al.
# Submitted via: CDex 1.51
#
DISCID=8507e90b
DTITLE=SoundBarn - Lookin' Back
DYEAR=2011
DGENRE=Country
TTITLE0=Wash My Hands
TTITLE1=Perfect Eyes
TTITLE2=I'll Just Dream Of You
TTITLE3=I Get So Lonely
TTITLE4=Lookin' Back
TTITLE5=Bakersfield Cowpolka
TTITLE6=Window Pain
TTITLE7=Don't Act So Surprised
TTITLE8=River Of Fools
TTITLE9=What Time
TTITLE10=Say That You Love Me
EXTD=YEAR: 2011
EXTT0=
EXTT1=
EXTT2=
EXTT3=
EXTT4=
EXTT5=
EXTT6=
EXTT7=
EXTT8=
EXTT9=
EXTT10=
PLAYORDER=
